<mxfile host="app.diagrams.net" modified="2023-04-19T04:59:16.084Z" agent="Mozilla/5.0 (X11; Linux x86_64; rv:109.0) Gecko/20100101 Firefox/112.0" version="21.1.9" etag="4oCZt3mV02h0b5DjBhsH" type="device">
  <diagram name="Page-1" id="Y5Dy5y8HCZtxOkdbCjPi">
    <mxGraphModel dx="1434" dy="748" grid="1" gridSize="10" guides="1" tooltips="1" connect="1" arrows="1" fold="1" page="1" pageScale="1" pageWidth="850" pageHeight="1100" math="0" shadow="0">
      <root>
        <mxCell id="0" />
        <mxCell id="1" parent="0" />
        <mxCell id="WP717TL4ayzGOpwllOKb-51" value="&lt;div style=&quot;font-size: 16px;&quot;&gt;&lt;font color=&quot;#5e5c64&quot;&gt;Contract Implementation&lt;br&gt;&lt;/font&gt;&lt;/div&gt;" style="whiteSpace=wrap;html=1;aspect=fixed;fillColor=none;dashed=1;strokeWidth=2;strokeColor=#999999;align=right;verticalAlign=top;" parent="1" vertex="1">
          <mxGeometry x="375" y="480" width="550" height="550" as="geometry" />
        </mxCell>
        <mxCell id="WP717TL4ayzGOpwllOKb-4" value="" style="shape=umlActor;verticalLabelPosition=bottom;verticalAlign=top;html=1;outlineConnect=0;" parent="1" vertex="1">
          <mxGeometry x="260" y="350" width="30" height="60" as="geometry" />
        </mxCell>
        <mxCell id="WP717TL4ayzGOpwllOKb-13" style="edgeStyle=orthogonalEdgeStyle;rounded=0;orthogonalLoop=1;jettySize=auto;html=1;entryX=1;entryY=0.5;entryDx=0;entryDy=0;" parent="1" source="WP717TL4ayzGOpwllOKb-5" target="WP717TL4ayzGOpwllOKb-11" edge="1">
          <mxGeometry relative="1" as="geometry" />
        </mxCell>
        <mxCell id="WP717TL4ayzGOpwllOKb-14" value="Stake LP NFT" style="edgeLabel;html=1;align=center;verticalAlign=middle;resizable=0;points=[];" parent="WP717TL4ayzGOpwllOKb-13" vertex="1" connectable="0">
          <mxGeometry x="0.25" y="2" relative="1" as="geometry">
            <mxPoint x="17" y="-10" as="offset" />
          </mxGeometry>
        </mxCell>
        <mxCell id="WP717TL4ayzGOpwllOKb-23" style="edgeStyle=orthogonalEdgeStyle;rounded=0;orthogonalLoop=1;jettySize=auto;html=1;exitX=0.5;exitY=0;exitDx=0;exitDy=0;exitPerimeter=0;entryX=0;entryY=0.5;entryDx=0;entryDy=0;" parent="1" source="WP717TL4ayzGOpwllOKb-5" target="WP717TL4ayzGOpwllOKb-22" edge="1">
          <mxGeometry relative="1" as="geometry" />
        </mxCell>
        <mxCell id="WP717TL4ayzGOpwllOKb-24" value="&lt;div&gt;Quote, Collateral,&lt;/div&gt;&lt;div&gt;Interest Rate&lt;br&gt;&lt;/div&gt;" style="edgeLabel;html=1;align=center;verticalAlign=middle;resizable=0;points=[];" parent="WP717TL4ayzGOpwllOKb-23" vertex="1" connectable="0">
          <mxGeometry x="0.3106" y="-1" relative="1" as="geometry">
            <mxPoint x="11" y="-18" as="offset" />
          </mxGeometry>
        </mxCell>
        <mxCell id="WP717TL4ayzGOpwllOKb-5" value="" style="shape=umlActor;verticalLabelPosition=bottom;verticalAlign=top;html=1;outlineConnect=0;" parent="1" vertex="1">
          <mxGeometry x="270" y="360" width="30" height="60" as="geometry" />
        </mxCell>
        <mxCell id="WP717TL4ayzGOpwllOKb-8" style="edgeStyle=orthogonalEdgeStyle;rounded=0;orthogonalLoop=1;jettySize=auto;html=1;entryX=0.5;entryY=0;entryDx=0;entryDy=0;" parent="1" source="WP717TL4ayzGOpwllOKb-6" target="WP717TL4ayzGOpwllOKb-7" edge="1">
          <mxGeometry relative="1" as="geometry" />
        </mxCell>
        <mxCell id="WP717TL4ayzGOpwllOKb-9" value="&lt;div&gt;Memorialize&lt;/div&gt;&lt;div&gt;LP Position&lt;/div&gt;" style="edgeLabel;html=1;align=center;verticalAlign=middle;resizable=0;points=[];" parent="WP717TL4ayzGOpwllOKb-8" vertex="1" connectable="0">
          <mxGeometry x="0.2364" relative="1" as="geometry">
            <mxPoint x="-1" as="offset" />
          </mxGeometry>
        </mxCell>
        <mxCell id="WP717TL4ayzGOpwllOKb-31" style="edgeStyle=orthogonalEdgeStyle;rounded=0;orthogonalLoop=1;jettySize=auto;html=1;exitX=1;exitY=0.3333333333333333;exitDx=0;exitDy=0;exitPerimeter=0;entryX=0;entryY=0.75;entryDx=0;entryDy=0;" parent="1" source="WP717TL4ayzGOpwllOKb-6" target="WP717TL4ayzGOpwllOKb-25" edge="1">
          <mxGeometry relative="1" as="geometry" />
        </mxCell>
        <mxCell id="WP717TL4ayzGOpwllOKb-6" value="Users" style="shape=umlActor;verticalLabelPosition=bottom;verticalAlign=top;html=1;outlineConnect=0;" parent="1" vertex="1">
          <mxGeometry x="280" y="370" width="30" height="60" as="geometry" />
        </mxCell>
        <mxCell id="WP717TL4ayzGOpwllOKb-17" style="edgeStyle=orthogonalEdgeStyle;rounded=0;orthogonalLoop=1;jettySize=auto;html=1;entryX=0;entryY=1;entryDx=0;entryDy=0;entryPerimeter=0;exitX=0;exitY=0.5;exitDx=0;exitDy=0;" parent="1" source="WP717TL4ayzGOpwllOKb-7" target="WP717TL4ayzGOpwllOKb-4" edge="1">
          <mxGeometry relative="1" as="geometry">
            <Array as="points">
              <mxPoint x="215" y="570" />
              <mxPoint x="215" y="410" />
            </Array>
          </mxGeometry>
        </mxCell>
        <mxCell id="WP717TL4ayzGOpwllOKb-18" value="Mint LP NFT" style="edgeLabel;html=1;align=center;verticalAlign=middle;resizable=0;points=[];" parent="WP717TL4ayzGOpwllOKb-17" vertex="1" connectable="0">
          <mxGeometry x="0.0667" y="-4" relative="1" as="geometry">
            <mxPoint x="-5" y="27" as="offset" />
          </mxGeometry>
        </mxCell>
        <mxCell id="WP717TL4ayzGOpwllOKb-7" value="PositionManager" style="rounded=1;whiteSpace=wrap;html=1;fillColor=#99c1f1;" parent="1" vertex="1">
          <mxGeometry x="235" y="540" width="120" height="60" as="geometry" />
        </mxCell>
        <mxCell id="WP717TL4ayzGOpwllOKb-19" style="edgeStyle=orthogonalEdgeStyle;rounded=0;orthogonalLoop=1;jettySize=auto;html=1;entryX=0.5;entryY=0;entryDx=0;entryDy=0;entryPerimeter=0;exitX=0.5;exitY=0;exitDx=0;exitDy=0;" parent="1" source="WP717TL4ayzGOpwllOKb-11" target="WP717TL4ayzGOpwllOKb-4" edge="1">
          <mxGeometry relative="1" as="geometry" />
        </mxCell>
        <mxCell id="WP717TL4ayzGOpwllOKb-21" value="Ajna Rewards" style="edgeLabel;html=1;align=center;verticalAlign=middle;resizable=0;points=[];" parent="WP717TL4ayzGOpwllOKb-19" vertex="1" connectable="0">
          <mxGeometry x="-0.1234" y="-1" relative="1" as="geometry">
            <mxPoint x="26" y="-10" as="offset" />
          </mxGeometry>
        </mxCell>
        <mxCell id="WP717TL4ayzGOpwllOKb-11" value="RewardsManager" style="rounded=1;whiteSpace=wrap;html=1;fillColor=#99c1f1;" parent="1" vertex="1">
          <mxGeometry x="30" y="360" width="120" height="60" as="geometry" />
        </mxCell>
        <mxCell id="WP717TL4ayzGOpwllOKb-28" style="edgeStyle=orthogonalEdgeStyle;rounded=0;orthogonalLoop=1;jettySize=auto;html=1;entryX=0.5;entryY=0;entryDx=0;entryDy=0;" parent="1" source="WP717TL4ayzGOpwllOKb-22" target="WP717TL4ayzGOpwllOKb-25" edge="1">
          <mxGeometry relative="1" as="geometry" />
        </mxCell>
        <mxCell id="WP717TL4ayzGOpwllOKb-22" value="Factory" style="rounded=1;whiteSpace=wrap;html=1;fillColor=#99c1f1;" parent="1" vertex="1">
          <mxGeometry x="410" y="220" width="120" height="60" as="geometry" />
        </mxCell>
        <mxCell id="WP717TL4ayzGOpwllOKb-25" value="" style="rounded=1;whiteSpace=wrap;html=1;fillColor=#99c1f1;" parent="1" vertex="1">
          <mxGeometry x="570" y="345" width="120" height="60" as="geometry" />
        </mxCell>
        <mxCell id="WP717TL4ayzGOpwllOKb-26" value="" style="rounded=1;whiteSpace=wrap;html=1;fillColor=#99c1f1;" parent="1" vertex="1">
          <mxGeometry x="580" y="353" width="120" height="60" as="geometry" />
        </mxCell>
        <mxCell id="WP717TL4ayzGOpwllOKb-41" style="edgeStyle=orthogonalEdgeStyle;rounded=0;orthogonalLoop=1;jettySize=auto;html=1;entryX=0.5;entryY=0;entryDx=0;entryDy=0;dashed=1;dashPattern=8 8;" parent="1" source="WP717TL4ayzGOpwllOKb-27" target="WP717TL4ayzGOpwllOKb-32" edge="1">
          <mxGeometry relative="1" as="geometry" />
        </mxCell>
        <mxCell id="WP717TL4ayzGOpwllOKb-27" value="&lt;div&gt;ERC20/ERC721&lt;/div&gt;&lt;div&gt;Pool Proxy&lt;br&gt;&lt;/div&gt;" style="rounded=1;whiteSpace=wrap;html=1;fillColor=#99c1f1;" parent="1" vertex="1">
          <mxGeometry x="590" y="363" width="120" height="60" as="geometry" />
        </mxCell>
        <mxCell id="WP717TL4ayzGOpwllOKb-32" value="&lt;div&gt;ERC20/ERC721&lt;/div&gt;&lt;div&gt;Implementation&lt;br&gt;&lt;/div&gt;" style="rounded=1;whiteSpace=wrap;html=1;fillColor=#99c1f1;" parent="1" vertex="1">
          <mxGeometry x="590" y="500" width="120" height="60" as="geometry" />
        </mxCell>
        <mxCell id="WP717TL4ayzGOpwllOKb-40" style="edgeStyle=orthogonalEdgeStyle;rounded=0;orthogonalLoop=1;jettySize=auto;html=1;entryX=0.5;entryY=1;entryDx=0;entryDy=0;" parent="1" source="WP717TL4ayzGOpwllOKb-33" target="WP717TL4ayzGOpwllOKb-32" edge="1">
          <mxGeometry relative="1" as="geometry" />
        </mxCell>
        <mxCell id="WP717TL4ayzGOpwllOKb-33" value="Pool" style="rounded=1;whiteSpace=wrap;html=1;fillColor=#ffbe6f;" parent="1" vertex="1">
          <mxGeometry x="590" y="590" width="120" height="60" as="geometry" />
        </mxCell>
        <mxCell id="WP717TL4ayzGOpwllOKb-39" style="edgeStyle=orthogonalEdgeStyle;rounded=0;orthogonalLoop=1;jettySize=auto;html=1;entryX=0.5;entryY=1;entryDx=0;entryDy=0;" parent="1" source="WP717TL4ayzGOpwllOKb-34" target="WP717TL4ayzGOpwllOKb-33" edge="1">
          <mxGeometry relative="1" as="geometry" />
        </mxCell>
        <mxCell id="WP717TL4ayzGOpwllOKb-34" value="Libraries" style="rounded=1;whiteSpace=wrap;html=1;fillColor=#8ff0a4;" parent="1" vertex="1">
          <mxGeometry x="590" y="680" width="120" height="60" as="geometry" />
        </mxCell>
        <mxCell id="WP717TL4ayzGOpwllOKb-42" value="&lt;div&gt;Delegate&lt;/div&gt;&lt;div&gt;call&lt;/div&gt;" style="edgeLabel;html=1;align=center;verticalAlign=middle;resizable=0;points=[];" parent="1" vertex="1" connectable="0">
          <mxGeometry x="649" y="456" as="geometry">
            <mxPoint y="4" as="offset" />
          </mxGeometry>
        </mxCell>
        <mxCell id="WP717TL4ayzGOpwllOKb-46" style="edgeStyle=orthogonalEdgeStyle;rounded=0;orthogonalLoop=1;jettySize=auto;html=1;entryX=0.417;entryY=1;entryDx=0;entryDy=0;entryPerimeter=0;exitX=0.5;exitY=0;exitDx=0;exitDy=0;" parent="1" source="WP717TL4ayzGOpwllOKb-43" target="WP717TL4ayzGOpwllOKb-34" edge="1">
          <mxGeometry relative="1" as="geometry">
            <Array as="points">
              <mxPoint x="485" y="770" />
              <mxPoint x="640" y="770" />
            </Array>
          </mxGeometry>
        </mxCell>
        <mxCell id="WP717TL4ayzGOpwllOKb-43" value="&lt;div align=&quot;left&quot;&gt;&lt;b&gt;External&lt;/b&gt;&lt;/div&gt;&lt;div align=&quot;left&quot;&gt;&lt;b&gt;&lt;br&gt;&lt;/b&gt;&lt;/div&gt;&lt;div align=&quot;left&quot;&gt;- LenderActions&lt;/div&gt;&lt;div align=&quot;left&quot;&gt;- BorrowerActions&lt;/div&gt;&lt;div align=&quot;left&quot;&gt;&lt;br&gt;&lt;/div&gt;&lt;div align=&quot;left&quot;&gt;- KickerActions&lt;/div&gt;&lt;div align=&quot;left&quot;&gt;- TakerActions&lt;/div&gt;&lt;div align=&quot;left&quot;&gt;- SettlerActions&lt;/div&gt;&lt;div align=&quot;left&quot;&gt;- LPActions&lt;/div&gt;&lt;div align=&quot;left&quot;&gt;&lt;br&gt;&lt;/div&gt;&lt;div align=&quot;left&quot;&gt;- PoolCommons&lt;/div&gt;" style="whiteSpace=wrap;html=1;aspect=fixed;align=left;verticalAlign=top;" parent="1" vertex="1">
          <mxGeometry x="400" y="800" width="170" height="170" as="geometry" />
        </mxCell>
        <mxCell id="WP717TL4ayzGOpwllOKb-49" style="edgeStyle=orthogonalEdgeStyle;rounded=0;orthogonalLoop=1;jettySize=auto;html=1;entryX=0.5;entryY=1;entryDx=0;entryDy=0;" parent="1" edge="1">
          <mxGeometry relative="1" as="geometry">
            <Array as="points">
              <mxPoint x="659" y="790" />
              <mxPoint x="659" y="790" />
            </Array>
            <mxPoint x="659.0588235294117" y="800" as="sourcePoint" />
            <mxPoint x="659" y="740" as="targetPoint" />
          </mxGeometry>
        </mxCell>
        <mxCell id="WP717TL4ayzGOpwllOKb-44" value="&lt;div align=&quot;left&quot;&gt;&lt;b&gt;Internal&lt;/b&gt;&lt;/div&gt;&lt;div align=&quot;left&quot;&gt;&lt;b&gt;&lt;br&gt;&lt;/b&gt;&lt;/div&gt;&lt;div align=&quot;left&quot;&gt;- Buckets&lt;/div&gt;&lt;div align=&quot;left&quot;&gt;- Deposits&lt;/div&gt;&lt;div align=&quot;left&quot;&gt;- Loans&lt;/div&gt;&lt;div align=&quot;left&quot;&gt;- Maths&lt;br&gt;&lt;/div&gt;" style="whiteSpace=wrap;html=1;aspect=fixed;align=left;verticalAlign=top;" parent="1" vertex="1">
          <mxGeometry x="620" y="800" width="100" height="100" as="geometry" />
        </mxCell>
        <mxCell id="WP717TL4ayzGOpwllOKb-50" style="edgeStyle=orthogonalEdgeStyle;rounded=0;orthogonalLoop=1;jettySize=auto;html=1;entryX=0.75;entryY=1;entryDx=0;entryDy=0;exitX=0.392;exitY=0.01;exitDx=0;exitDy=0;exitPerimeter=0;" parent="1" source="WP717TL4ayzGOpwllOKb-45" target="WP717TL4ayzGOpwllOKb-34" edge="1">
          <mxGeometry relative="1" as="geometry">
            <Array as="points">
              <mxPoint x="800" y="801" />
              <mxPoint x="800" y="770" />
              <mxPoint x="680" y="770" />
            </Array>
          </mxGeometry>
        </mxCell>
        <mxCell id="WP717TL4ayzGOpwllOKb-45" value="&lt;div align=&quot;left&quot;&gt;&lt;b&gt;Helpers&lt;/b&gt;&lt;/div&gt;&lt;div align=&quot;left&quot;&gt;&lt;b&gt;&lt;br&gt;&lt;/b&gt;&lt;/div&gt;&lt;div align=&quot;left&quot;&gt;- PoolHelpers&lt;/div&gt;&lt;div align=&quot;left&quot;&gt;- RevertHelpers&lt;/div&gt;" style="whiteSpace=wrap;html=1;aspect=fixed;align=left;verticalAlign=top;" parent="1" vertex="1">
          <mxGeometry x="760" y="800" width="97" height="97" as="geometry" />
        </mxCell>
      </root>
    </mxGraphModel>
  </diagram>
</mxfile>
